Coordinates
version=1
nRows=29
nColumns=24
inDegrees=yes

Units are S.I. units (second, meters, Newtons, ...)
Angles are in degrees.

endheader
time	pelvis_tilt	pelvis_list	pelvis_rotation	pelvis_tx	pelvis_ty	pelvis_tz	hip_flexion_r	hip_adduction_r	hip_rotation_r	knee_angle_r	ankle_angle_r	subtalar_angle_r	mtp_angle_r	hip_flexion_l	hip_adduction_l	hip_rotation_l	knee_angle_l	ankle_angle_l	subtalar_angle_l	mtp_angle_l	lumbar_extension	lumbar_bending	lumbar_rotation
      0.54600000	      0.00649865	      7.61075682	      1.54650094	     -0.77006980	      0.99038907	      0.27364453	     23.97491766	     -7.10422861	      0.13050527	     -0.44675767	      5.70894670	     -8.76047406	      0.01825197	    -18.94984472	     10.63258861	      7.94725181	     -3.48794019	      9.62100726	    -15.15212737	      0.09318142	     -3.62836923	     -9.56710246	     -3.81760506
      0.55016667	      0.00038549	      7.55377773	      1.63872089	     -0.76397170	      0.98976316	      0.27383322	     24.05080045	     -7.04119430	      0.26132217	     -0.90460050	      5.79791407	     -8.88666984	      0.02573112	    -19.04968899	     10.52572097	      8.05949836	     -4.02635514	      9.72031995	    -15.11895466	      0.08121035	     -3.59722820	     -9.45653480	     -3.82387950
      0.55433333	     -0.05491797	      7.48585409	      1.72417807	     -0.75782575	      0.98910767	      0.27407854	     24.16560429	     -6.95513955	      0.48910460	     -1.39434606	      5.75513740	     -9.16807248	      0.05628330	    -19.03383365	     10.40638608	      7.99401288	     -4.69133546	      9.88492231	    -14.78878722	      0.06080259	     -3.51445198	     -9.35333194	     -3.97180265
      0.55850000	     -0.04499352	      7.38784871	      1.79736598	     -0.75160437	      0.98858628	      0.27433272	     24.19560621	     -6.83270848	      0.71537404	     -1.92479114	      5.74237689	     -9.42318453	      0.08510090	    -19.11002094	     10.25816102	      7.99971644	     -5.30633819	     10.00332388	    -14.61365742	      0.06175316	     -3.50687070	     -9.20019729	     -4.04420194
      0.56266667	     -0.06541904	      7.29821908	      1.86960849	     -0.74534543	      0.98806458	      0.27459659	     24.25872154	     -6.71292120	      0.95883705	     -2.50470069	      5.63664350	     -9.75467699	      0.12538993	    -19.10998526	     10.12267701	      7.93679236	     -6.00903625	     10.11501853	    -14.36577886	      0.07905717	     -3.43424350	     -9.05029865	     -4.15123309
      0.56683333	     -0.07327093	      7.18694966	      1.93185459	     -0.73902192	      0.98760271	      0.27489563	     24.29899071	     -6.56218508	      1.19284962	     -3.11015783	      5.40563371	    -10.12186077	      0.20091878	    -19.09505203	      9.96034596	      7.76730453	     -6.76161033	     10.18508464	    -13.97326219	      0.13106526	     -3.37528204	     -8.89085326	     -4.24379654
      0.57100000	     -0.07251227	      7.06869673	      1.99081971	     -0.73266041	      0.98718503	      0.27519222	     24.33267001	     -6.40091591	      1.42438768	     -3.76867003	      5.26211196	    -10.41385120	      0.25857546	    -19.09400455	      9.80075007	      7.70767604	     -7.50991122	     10.24643744	    -13.79521234	      0.18341161	     -3.32969103	     -8.70780964	     -4.30501216
      0.57516667	     -0.07002840	      6.94826673	      2.04489710	     -0.72624156	      0.98682800	      0.27552789	     24.34855993	     -6.22957468	      1.65476493	     -4.42409957	      4.94819722	    -10.78576417	      0.39248520	    -19.03956985	      9.62860723	      7.47034779	     -8.34981059	     10.25428133	    -13.36010383	      0.33432238	     -3.26362424	     -8.52700931	     -4.36922158
      0.57933333	     -0.09328866	      6.82070437	      2.09088559	     -0.71977954	      0.98645727	      0.27586689	     24.40783384	     -6.04587619	      1.86927999	     -5.14329474	      4.69133880	    -11.08183887	      0.47457841	    -18.96565144	      9.46640206	      7.36218554	     -9.18641487	     10.22969922	    -13.17258839	      0.44527822	     -3.17269539	     -8.34303248	     -4.42304199
      0.58350000	     -0.07403365	      6.69253415	      2.13809804	     -0.71328500	      0.98620609	      0.27623400	     24.40214913	     -5.85866110	      2.06893502	     -5.84850641	      4.34299268	    -11.42589538	      0.62237018	    -18.89204789	      9.28659599	      7.11476199	    -10.08963856	     10.15888650	    -12.74586943	      0.67626652	     -3.12333274	     -8.16231401	     -4.45480496
      0.58766667	     -0.09746660	      6.55089703	      2.15421762	     -0.70672833	      0.98590945	      0.27662132	     24.45661116	     -5.64507857	      2.27884375	     -6.59501843	      4.00781134	    -11.66663245	      0.70935729	    -18.76475565	      9.11909368	      6.91436265	    -11.01523459	     10.05539414	    -12.56320197	      0.83561107	     -3.00520352	     -7.94849976	     -4.49101860
      0.59183333	     -0.09725214	      6.41419797	      2.17826595	     -0.70015548	      0.98569816	      0.27703822	     24.47546622	     -5.43609411	      2.46971925	     -7.34009932	      3.62097206	    -11.96321046	      0.81480509	    -18.62000204	      8.93914757	      6.61909741	    -12.01294389	      9.91658091	    -12.17954241	      1.05822117	     -2.91854820	     -7.75375254	     -4.50485931
      0.59600000	      0.02477829	      6.24418519	      2.18262176	     -0.69357433	      0.98569398	      0.27749175	     24.33901278	     -5.18715415	      2.63388296	     -8.04674511	      3.23362719	    -12.20324698	      1.25800330	    -18.56056628	      8.70817946	      6.18901556	    -13.08036139	      9.78321976	    -11.64667188	      2.13281444	     -2.99171906	     -7.50975253	     -4.48549065
      0.60016667	     -0.02432203	      6.12993297	      2.20125100	     -0.68696521	      0.98549094	      0.27793771	     24.43044608	     -4.99764035	      2.79466028	     -8.85475918	      2.86125864	    -12.47512667	      2.97360546	    -18.31368630	      8.56068535	      5.93622297	    -14.14596151	      9.40201963	    -11.51718248	      7.55123067	     -2.83435895	     -7.35110674	     -4.50375513
      0.60433333	     -0.02909566	      5.99680549	      2.21139209	     -0.68034035	      0.98538564	      0.27839900	     24.46165862	     -4.78898529	      2.91957494	     -9.64829990	      2.52289839	    -12.61763183	      2.94447776	    -18.06756553	      8.38479706	      5.59306455	    -15.30466360	      9.10296539	    -11.20332909	      7.61558927	     -2.72951051	     -7.16252420	     -4.46871448
      0.60850000	     -0.00232323	      5.85551858	      2.19939598	     -0.67370882	      0.98535886	      0.27891569	     24.45601710	     -4.56170173	      3.05769876	    -10.43884034	      2.18003969	    -12.77604221	      2.91603112	    -17.82073718	      8.19357666	      5.17518166	    -16.51217618	      8.76014774	    -10.82597480	      7.74364292	     -2.66184503	     -6.96244293	     -4.43690797
      0.61266667	      0.03161993	      5.71515572	      2.17988524	     -0.66707795	      0.98537355	      0.27945384	     24.44180285	     -4.33292838	      3.18938340	    -11.23285050	      1.86143977	    -12.91650569	      2.88735250	    -17.55184915	      8.00013272	      4.74407854	    -17.76498238	      8.35053493	    -10.46424757	      7.93216107	     -2.60436490	     -6.76525198	     -4.39448136
      0.61683333	      0.13757395	      5.54281896	      2.15922592	     -0.66043714	      0.98554185	      0.28001854	     24.32693407	     -4.07170621	      3.28666958	    -11.98946140	      1.52937540	    -13.07211363	      2.80192751	    -17.32294696	      7.74971622	      4.23604325	    -19.06410968	      7.89057777	     -9.98738567	      8.64148915	     -2.63653612	     -6.51894056	     -4.33367537
      0.62100000	      0.12926652	      5.42138199	      2.11926903	     -0.65382902	      0.98557094	      0.28064474	     24.35827294	     -3.84778871	      3.46915280	    -12.78768526	      1.23093212	    -13.27227661	      2.23768258	    -16.93688214	      7.56870146	      3.76518831	    -20.40719996	      7.25713792	     -9.78547726	     13.70646873	     -2.52335615	     -6.35754185	     -4.30535138
      0.62516667	      0.17440547	      5.30439628	      2.07437021	     -0.64724663	      0.98569007	      0.28125681	     24.35215802	     -3.64019148	      3.54084059	    -13.63364539	      1.11592029	    -13.19119000	      2.23803295	    -16.57453014	      7.38375053	      3.28034392	    -21.80515558	      6.63457612	     -9.49275223	     13.76389322	     -2.47825861	     -6.19590894	     -4.22973696
      0.62933333	      0.21379378	      5.17593409	      2.03422297	     -0.64067285	      0.98585597	      0.28190740	     24.32601738	     -3.41650537	      3.64270083	    -14.43072100	      0.94513863	    -13.25021829	      2.22619311	    -16.16387373	      7.16931370	      2.76320227	    -23.26087928	      5.96204721	     -9.16476509	     13.87195734	     -2.42656851	     -6.02744058	     -4.15987085
      0.63350000	      0.27342909	      5.04035853	      1.98755369	     -0.63415384	      0.98606278	      0.28258358	     24.27915942	     -3.18245976	      3.73200666	    -15.23018891	      0.80057143	    -13.32968432	      2.19829244	    -15.74144010	      6.93648800	      2.23760040	    -24.76530477	      5.25290734	     -8.82388816	     14.05439463	     -2.41197889	     -5.83622454	     -4.07844344
      0.63766667	      0.39642447	      4.86507024	      1.93197118	     -0.62763963	      0.98642743	      0.28332259	     24.10445657	     -2.89750286	      3.86440174	    -15.90719744	      0.61208163	    -13.48049020	      1.97122334	    -15.34932761	      6.63216193	      1.63325114	    -26.30659374	      4.46454424	     -8.44206319	     15.32689410	     -2.47267103	     -5.60323792	     -3.95683450
      0.64183333	      0.37784860	      4.78724353	      1.89663592	     -0.62121241	      0.98658966	      0.28400360	     24.15283626	     -2.73045628	      3.93099430	    -16.73625419	      0.64555034	    -13.44683161	      1.93429973	    -14.78054964	      6.46011416	      1.20395133	    -27.87809879	      3.59353439	     -8.32052918	     15.52054823	     -2.36521537	     -5.50734429	     -3.93165830
      0.64600000	      0.43297991	      4.64836937	      1.87912668	     -0.61480034	      0.98691984	      0.28472181	     24.04968963	     -2.50004399	      4.00171399	    -17.42505482	      0.64926455	    -13.52770479	      1.83034961	    -14.24749070	      6.17844318	      0.70098598	    -29.50484851	      2.70205919	     -8.04625203	     15.95249758	     -2.35109258	     -5.33454559	     -3.83142136
      0.65016667	      0.48051584	      4.53911517	      1.81010588	     -0.60846467	      0.98722905	      0.28549093	     23.97491164	     -2.28262144	      4.11109081	    -18.13353555	      0.64743347	    -13.53836930	      1.76712719	    -13.69243193	      5.94411666	      0.19515022	    -31.13255401	      1.74908762	     -7.92853175	     16.17653972	     -2.33627334	     -5.19046663	     -3.78631291
      0.65433333	      0.51856426	      4.41367513	      1.77513029	     -0.60217180	      0.98757861	      0.28624931	     23.87763562	     -2.05859187	      4.18913899	    -18.78727983	      0.69345325	    -13.58950821	      1.69151865	    -13.09182481	      5.67247875	     -0.27121978	    -32.79948299	      0.80196984	     -7.80459039	     16.39999262	     -2.31398067	     -5.04594561	     -3.72121858
      0.65850000	      0.56019250	      4.29284996	      1.74538892	     -0.59593971	      0.98795993	      0.28700581	     23.75438010	     -1.84197237	      4.26110221	    -19.39388301	      0.77469201	    -13.64209088	      1.60790755	    -12.47155588	      5.39719368	     -0.71639242	    -34.48347315	     -0.19223542	     -7.73953727	     16.60377544	     -2.30274010	     -4.89927527	     -3.66152806
      0.66266667	      0.60198613	      4.16315247	      1.72744277	     -0.58976657	      0.98838939	      0.28775923	     23.60609110	     -1.61818091	      4.32574329	    -19.95289953	      0.88681200	    -13.69332784	      1.53399550	    -11.83081256	      5.10885877	     -1.11486381	    -36.17421781	     -1.18603032	     -7.73253005	     16.74688084	     -2.30114111	     -4.76556588	     -3.61316983
